<?xml version="1.0" encoding="UTF-8" standalone="no"?>
<!DOCTYPE svg PUBLIC "-//W3C//DTD SVG 1.1//EN" "http://www.w3.org/Graphics/SVG/1.1/DTD/svg11.dtd">
<svg width="100%" height="100%" viewBox="0 0 2560 667" version="1.1" xmlns="http://www.w3.org/2000/svg" xmlns:xlink="http://www.w3.org/1999/xlink" xml:space="preserve" xmlns:serif="http://www.serif.com/" style="fill-rule:evenodd;clip-rule:evenodd;stroke-linejoin:round;stroke-miterlimit:2;">
    <g transform="matrix(1,0,0,1,0,-773)">
        <path id="_1" serif:id="1" d="M-18.506,773.462L230.297,880.386L259.084,905.06L470.876,1007.87L499.663,999.647L530.506,1003.76L577.799,1024.32C577.799,1024.32 655.936,1223.78 910.908,1234.06C984.932,1252.56 964.369,1238.17 964.369,1238.17L1026.06,1283.41C1026.06,1283.41 1038.39,1279.29 1091.86,1291.63C1147.37,1266.96 1157.65,1279.29 1157.65,1279.29C1157.65,1279.29 1169.99,1285.46 1192.61,1287.52C1215.23,1289.57 1211.12,1314.25 1211.12,1314.25C1211.12,1314.25 1327.2,1274.18 1379.73,1256.67C1451.69,1262.84 1527.78,1287.52 1527.78,1287.52C1527.78,1287.52 1764.24,1306.02 1836.21,1277.24C1908.18,1248.45 2019.21,1186.76 2019.21,1186.76L2134.36,1160.03L2290.64,1088.06L2321.48,1086.01L2325.59,1051.05L2414.01,1081.9L2465.41,1069.56L2496.26,968.803L2555.89,977.028L2580.56,1001.7L2592.9,1497.25L-55.518,1542.49L-18.506,773.462Z" style="fill:rgb(4,16,64);"/>
    </g>
</svg>
