<?xml version="1.0" encoding="UTF-8" standalone="no"?>
<!DOCTYPE svg PUBLIC "-//W3C//DTD SVG 1.1//EN" "http://www.w3.org/Graphics/SVG/1.1/DTD/svg11.dtd">
<svg width="100%" height="100%" viewBox="0 0 2560 607" version="1.1" xmlns="http://www.w3.org/2000/svg" xmlns:xlink="http://www.w3.org/1999/xlink" xml:space="preserve" xmlns:serif="http://www.serif.com/" style="fill-rule:evenodd;clip-rule:evenodd;stroke-linejoin:round;stroke-miterlimit:2;">
    <g transform="matrix(1,0,0,1,0,-833)">
        <path id="_3" serif:id="3" d="M2594.96,1090.12L2440.74,1016.1L2366.72,1014.04L2333.82,1034.6L2272.13,1030.49L2226.89,1001.7C2226.89,1001.7 2215.58,967.432 2206.33,962.635C2197.08,957.837 2171.37,972.916 2171.37,972.916C2171.37,972.916 2152.73,954.339 2140.53,952.353C2125.79,949.954 2095.29,961.606 2082.96,958.522C2073.37,956.125 2073.35,940.984 2066.51,933.847C2058.62,925.622 2046.29,911.229 2035.66,909.173C2025.04,907.116 2014.35,923.2 2002.76,921.51C1986.31,919.111 1936.96,894.779 1936.96,894.779C1936.96,894.779 1878.57,915.64 1848.55,913.285C1813.59,910.544 1727.23,878.329 1727.23,878.329L1624.42,919.454C1624.42,919.454 1566.5,970.188 1533.94,962.635C1471.91,948.241 1252.24,833.092 1252.24,833.092L1026.06,886.554C1026.06,886.554 981.566,906.571 958.201,913.285C928.386,921.853 876.295,928.707 847.165,937.96C824.668,945.106 783.422,968.803 783.422,968.803C783.422,968.803 712.265,995.532 676.498,989.365C636.744,982.511 544.9,927.679 544.9,927.679L409.189,956.466L376.289,956.466L345.446,942.072L283.759,958.522L24.675,1003.76L-12.337,1009.93L-28.787,1497.25L2582.62,1495.2L2594.96,1090.12" style="fill:url(#_Linear1);"/>
    </g>
    <defs>
        <linearGradient id="_Linear1" x1="0" y1="0" x2="1" y2="0" gradientUnits="userSpaceOnUse" gradientTransform="matrix(4.11276,361.896,-91.6084,1.04108,1350.94,914.313)"><stop offset="0" style="stop-color:rgb(59,89,161);stop-opacity:1"/><stop offset="1" style="stop-color:rgb(142,174,229);stop-opacity:1"/></linearGradient>
    </defs>
</svg>
