<?xml version="1.0" encoding="UTF-8" standalone="no"?>
<!DOCTYPE svg PUBLIC "-//W3C//DTD SVG 1.1//EN" "http://www.w3.org/Graphics/SVG/1.1/DTD/svg11.dtd">
<svg width="100%" height="100%" viewBox="0 0 2560 819" version="1.1" xmlns="http://www.w3.org/2000/svg" xmlns:xlink="http://www.w3.org/1999/xlink" xml:space="preserve" xmlns:serif="http://www.serif.com/" style="fill-rule:evenodd;clip-rule:evenodd;stroke-linejoin:round;stroke-miterlimit:2;">
    <g transform="matrix(1,0,0,1,0,-621)">
        <path id="_4" serif:id="4" d="M-37.012,748.787L59.631,777.574L82.249,802.249L108.98,791.968L160.386,826.924L244.691,826.924L277.59,839.261L349.558,839.261L407.133,802.249L421.526,810.474L460.594,794.024L522.281,769.349C522.281,769.349 509.944,728.225 583.968,726.169C657.992,724.112 676.498,711.775 695.004,736.45C713.51,761.124 760.803,746.731 777.253,748.787C793.703,750.843 797.815,742.618 797.815,742.618L834.827,711.775L871.839,722.056L875.952,691.213L956.145,658.313L991.1,670.651L1026.06,674.763L1040.45,685.044L1145.32,621.301L1194.21,639.61L1264.58,658.313L1320.1,658.313C1320.1,658.313 1373.21,691.679 1429.78,747.389C1436.39,760.203 1438.79,781.111 1445.53,789.912C1450.94,796.987 1464,799.224 1470.2,800.193C1474.59,800.878 1478.98,796.751 1482.75,795.722C1486.03,794.827 1490.5,791.533 1492.82,794.024C1496.07,797.511 1494.1,817.31 1502.25,816.643C1523.15,814.929 1618.25,783.743 1618.25,783.743C1638.77,789.126 1658.61,795.872 1677.72,804.087C1695.56,811.759 1710.13,834.074 1729.29,831.036C1748.5,827.988 1793.03,785.799 1793.03,785.799C1793.03,785.799 1889.77,793.352 1906.56,788.801C1920.56,785.005 1935.44,783.863 1951.36,785.799C1966.82,787.756 1982.75,788.538 2003.87,776.373L2029.05,759.48L2056.22,771.406C2102.22,776.519 2130.28,774.161 2142.59,765.237C2159.16,760.945 2255.12,798.019 2286.52,824.867C2307.62,828.369 2325.96,832.904 2341.04,838.664C2354.07,843.643 2364.66,849.536 2372.49,856.468C2381.32,862.221 2389.25,866.357 2396.51,869.29C2418.76,878.275 2434.73,875.964 2451.02,874.217L2498.31,913.285L2560,929.735L2576.45,1472.58L-32.9,1454.07L-37.012,748.787Z" style="fill:url(#_Linear1);"/>
    </g>
    <defs>
        <linearGradient id="_Linear1" x1="0" y1="0" x2="1" y2="0" gradientUnits="userSpaceOnUse" gradientTransform="matrix(6.16867,-328.996,107.163,2.00931,1353,1030.49)"><stop offset="0" style="stop-color:rgb(178,213,255);stop-opacity:1"/><stop offset="0.18" style="stop-color:rgb(126,159,214);stop-opacity:1"/><stop offset="0.38" style="stop-color:rgb(78,109,176);stop-opacity:1"/><stop offset="1" style="stop-color:rgb(59,89,161);stop-opacity:1"/></linearGradient>
    </defs>
</svg>
