<?xml version="1.0" encoding="UTF-8" standalone="no"?><!DOCTYPE svg PUBLIC "-//W3C//DTD SVG 1.1//EN" "http://www.w3.org/Graphics/SVG/1.1/DTD/svg11.dtd"><svg width="100%" height="100%" viewBox="0 0 10667 4005" version="1.1" xmlns="http://www.w3.org/2000/svg" xmlns:xlink="http://www.w3.org/1999/xlink" xml:space="preserve" xmlns:serif="http://www.serif.com/" style="fill-rule:evenodd;clip-rule:evenodd;stroke-linejoin:round;stroke-miterlimit:2;"><path id="_5" serif:id="5" d="M-17.135,550.932c-0,-0 188.487,-60.93 291.298,-162.478c102.812,-101.549 325.569,-60.929 325.569,-60.929c0,-0 539.759,284.336 642.571,223.407c102.811,-60.93 359.839,-91.394 411.245,-81.239c51.405,10.155 385.542,-182.788 496.921,-172.633c111.378,10.155 205.622,-60.929 222.757,0c17.135,60.929 17.135,111.704 145.65,142.168c128.514,30.465 25.702,192.943 214.19,81.239c188.487,-111.703 276.663,-301.683 334.136,-233.562c42.838,50.775 179.92,182.788 179.92,182.788l839.625,253.871l205.622,-203.097l162.785,121.858l419.813,-111.703l162.784,81.239c0,-0 144.221,-306.339 231.325,-355.42c87.104,-49.082 196.222,91.888 291.299,60.929c129.942,-42.312 488.353,-314.801 488.353,-314.801c0,0 227.042,69.392 308.434,111.704c66.009,34.314 113.509,108.96 179.92,142.168c91.387,45.697 111.379,50.774 368.407,132.013c257.028,81.239 351.271,59.237 496.921,71.084c125.363,10.197 376.974,-0 376.974,-0l197.055,91.394l179.92,-152.323l119.946,132.013c0,-0 198.483,-220.022 299.866,-284.336c94.078,-59.68 308.434,-101.549 308.434,-101.549l634.003,477.279l359.839,-81.239l231.325,50.774l317.002,111.704l325.569,-142.168l45.708,3597.53l-10958,264.027l142.779,-3871.71Z" style="fill:url(#_Linear1);"/><defs><linearGradient id="_Linear1" x1="0" y1="0" x2="1" y2="0" gradientUnits="userSpaceOnUse" gradientTransform="matrix(0.00130629,1165.19,-470,0.000526914,5674.62,490.517)"><stop offset="0" style="stop-color:#8fc0ff;stop-opacity:1"/><stop offset="1" style="stop-color:#4574c7;stop-opacity:1"/></linearGradient></defs></svg>